# xmcd CD database file
#
# Track frame offsets:
#	150
#	19571
#	37942
#	61938
#	79500
#	100330
#	128067
#	146910
#	170602
#	191664
#
# Disc length: 2934 seconds
#
# Revision: 0
# Processed by: cddbd v1.5.2PL0 Copyright (c) Steve Scherf et al.
# Submitted via: CDex 1.70beta2
#
DISCID=7e0b740a
DTITLE=The Jo Foks Quartet - Here And Now
DYEAR=1900
DGENRE=Jazz
TTITLE0=Here And Now
TTITLE1=Indira
TTITLE2=Birthday Wish
TTITLE3=90s Girl
TTITLE4=Turbulence
TTITLE5=Forgotten Friends
TTITLE6=Just The Little Thing
TTITLE7=My BB
TTITLE8=Quite Likes Brussel Sprouts
TTITLE9=Heart Of Gold
EXTD=
EXTT0=
EXTT1=
EXTT2=
EXTT3=
EXTT4=
EXTT5=
EXTT6=
EXTT7=
EXTT8=
EXTT9=
PLAYORDER=
